<?xml version="1.0" standalone="no"?><!DOCTYPE svg PUBLIC "-//W3C//DTD SVG 1.1//EN" "http://www.w3.org/Graphics/SVG/1.1/DTD/svg11.dtd"><svg stroke-width="1.5" id="Layer_1" data-name="Layer 1" viewBox="0 0 24 24" version="1.1" xmlns="http://www.w3.org/2000/svg" xmlns:xlink="http://www.w3.org/1999/xlink"><defs><style>.cls-5tbc0wda5yxnkx46b0y5yb-1{fill:none;stroke:currentColor;stroke-miterlimit:10;;}</style></defs><path class="cls-5tbc0wda5yxnkx46b0y5yb-1" d="M8.5 17c-2.73-.52-4.33-1.56-5-3"/><path class="cls-5tbc0wda5yxnkx46b0y5yb-1" d="M4.5 10c-1.15-1.92-1.7-5.38-1-6 3.1 2.5 6.12 4.09 9 4 0 0 0-5 4-5a4.38 4.38 0 0 1 3 1h3l-1 3a13.47 13.47 0 0 1-4 11c-5 5-13 4-16 0"/><path class="cls-5tbc0wda5yxnkx46b0y5yb-1" d="M5.5 14a7.57 7.57 0 0 1-3-5"/></svg>